PathFileType	4	(X/Y/Z)	C:\Users\Caesar\Desktop\±œ“µ…Ëº∆\Lee-Son's Toolbox\Example Data\Static.trc	Maker trajectories (.TRC) by Lee-Son ToolBox
DataRate	CameraRate	NumFrames	NumMarkers	Units	OrigDataRate	OrigDataStarFrame	OrigNumFrames
100	100	6	42	mm	100	1	264
Frame#	Time	CLAV			C7			RACR			LACR			RASH			RPSH			RUA3			RLEL			RMEL			RFAsuperior			RFAradius			RFAulna			LASH			LPSH			LUA1			LLEL			LMEL			LFAsuperior			LFAradius			LFAulna			LASI			RASI			LPSI			RPSI			RTH3			RLFC			RMFC			RTB3			RLMAL			RMMAL			RCAL			RMT5			RTOE			LTH1			LLFC			LMFC			LTB1			LLMAL			LMMAL			LCAL			LMT5			LTOE		
		X1	Y1	Z1	X2	Y2	Z2	X3	Y3	Z3	X4	Y4	Z4	X5	Y5	Z5	X6	Y6	Z6	X7	Y7	Z7	X8	Y8	Z8	X9	Y9	Z9	X10	Y10	Z10	X11	Y11	Z11	X12	Y12	Z12	X13	Y13	Z13	X14	Y14	Z14	X15	Y15	Z15	X16	Y16	Z16	X17	Y17	Z17	X18	Y18	Z18	X19	Y19	Z19	X20	Y20	Z20	X21	Y21	Z21	X22	Y22	Z22	X23	Y23	Z23	X24	Y24	Z24	X25	Y25	Z25	X26	Y26	Z26	X27	Y27	Z27	X28	Y28	Z28	X29	Y29	Z29	X30	Y30	Z30	X31	Y31	Z31	X32	Y32	Z32	X33	Y33	Z33	X34	Y34	Z34	X35	Y35	Z35	X36	Y36	Z36	X37	Y37	Z37	X38	Y38	Z38	X39	Y39	Z39	X40	Y40	Z40	X41	Y41	Z41	X42	Y42	Z42

34	0.33	585.651	1419.12	210.139	565.185	1468.07	350.3	730.876	1422.58	294.258	409.676	1450.47	299.564	731.958	1379.81	235.569	714.282	1365.73	372.674	813.566	1279.29	329.174	871.504	1133.63	336.866	822.39	1107.71	289.89	900.089	1078.07	345.899	1060.16	970.629	297.871	1004.38	926.566	330.987	411.773	1412.54	238.559	398.695	1389.1	368.561	326.403	1379.87	325.672	235.688	1157.05	343.125	295.053	1144.41	293.714	200.561	1108.35	350.265	75.904	987.383	295.291	127.91	945.923	332.687	419.225	967.077	198.301	692.937	963.35	202.222	517.664	988.121	370.054	610.376	981.81	373.344	759.574	770.453	241.524	761.581	506.869	279.47	660.36	490.937	289.419	805.268	394.579	333.888	784.021	93.1722	349.862	696.786	102.502	311.131	734.388	44.6337	411.432	825.081	27.2503	236.468	757.737	38.6077	154.877	355.996	678.858	263.655	369.965	515.26	276.392	470.299	492.584	275.243	341.872	231.119	350.174	352.366	102.794	349.107	436.646	113.424	312.309	407.405	41.0363	409.01	306.182	30.251	241.266	365.075	40.1651	154.772
35	0.34	585.693	1419.13	209.986	565.225	1468.08	350.15	730.926	1422.6	294.085	409.719	1450.47	299.419	732.004	1379.83	235.399	714.348	1365.76	372.505	813.63	1279.32	328.998	871.581	1133.66	336.702	822.46	1107.73	289.738	900.173	1078.1	345.736	1060.25	970.679	297.689	1004.49	926.617	330.827	411.816	1412.53	238.415	398.744	1389.1	368.423	326.455	1379.86	325.534	235.751	1157.05	343.034	295.117	1144.4	293.625	200.623	1108.35	350.184	75.9736	987.368	295.227	127.976	945.919	332.642	419.284	967.052	198.224	692.994	963.333	202.149	517.719	988.157	369.97	610.431	981.85	373.266	759.625	770.449	241.499	761.621	506.868	279.471	660.4	490.948	289.431	805.303	394.575	333.89	784.025	93.1713	349.865	696.79	102.507	311.132	734.389	44.6338	411.434	825.083	27.25	236.469	757.739	38.6062	154.876	356.035	678.86	263.644	370.004	515.27	276.402	470.335	492.587	275.248	341.882	231.128	350.174	352.372	102.802	349.105	436.65	113.427	312.305	407.408	41.0387	409.01	306.177	30.2503	241.262	365.069	40.1609	154.768
36	0.35	585.735	1419.14	209.833	565.266	1468.09	350.001	730.975	1422.61	293.912	409.761	1450.46	299.274	732.05	1379.85	235.229	714.413	1365.78	372.336	813.692	1279.35	328.822	871.658	1133.7	336.539	822.53	1107.75	289.586	900.257	1078.14	345.574	1060.33	970.728	297.507	1004.59	926.667	330.668	411.859	1412.53	238.272	398.793	1389.11	368.285	326.506	1379.86	325.396	235.813	1157.06	342.943	295.18	1144.4	293.536	200.685	1108.36	350.103	76.0428	987.353	295.163	128.041	945.916	332.598	419.342	967.026	198.148	693.05	963.315	202.076	517.774	988.192	369.887	610.486	981.889	373.188	759.676	770.445	241.474	761.66	506.868	279.471	660.44	490.958	289.444	805.338	394.572	333.893	784.03	93.1704	349.868	696.794	102.512	311.133	734.391	44.634	411.435	825.086	27.2497	236.469	757.74	38.6047	154.876	356.074	678.861	263.633	370.042	515.281	276.412	470.37	492.589	275.252	341.892	231.138	350.173	352.377	102.81	349.103	436.655	113.429	312.302	407.41	41.0411	409.01	306.173	30.2497	241.259	365.063	40.1566	154.764
37	0.36	585.776	1419.15	209.68	565.306	1468.1	349.851	731.024	1422.63	293.74	409.804	1450.46	299.129	732.096	1379.86	235.059	714.477	1365.8	372.167	813.755	1279.37	328.646	871.735	1133.73	336.377	822.6	1107.77	289.434	900.34	1078.17	345.412	1060.42	970.776	297.326	1004.69	926.716	330.509	411.901	1412.53	238.129	398.841	1389.11	368.148	326.557	1379.85	325.259	235.875	1157.06	342.853	295.243	1144.4	293.447	200.747	1108.36	350.022	76.1115	987.339	295.099	128.106	945.912	332.553	419.4	967.001	198.072	693.106	963.298	202.004	517.828	988.228	369.803	610.54	981.929	373.111	759.727	770.441	241.449	761.7	506.867	279.471	660.48	490.969	289.456	805.373	394.568	333.896	784.034	93.1696	349.87	696.799	102.517	311.134	734.393	44.6342	411.436	825.089	27.2494	236.47	757.742	38.6032	154.876	356.113	678.863	263.623	370.081	515.291	276.422	470.405	492.592	275.256	341.903	231.147	350.173	352.382	102.818	349.101	436.659	113.432	312.298	407.413	41.0436	409.01	306.168	30.249	241.256	365.058	40.1524	154.76
38	0.37	585.817	1419.15	209.528	565.347	1468.11	349.702	731.073	1422.65	293.568	409.846	1450.46	298.985	732.142	1379.88	234.89	714.542	1365.83	371.999	813.817	1279.4	328.471	871.811	1133.76	336.215	822.669	1107.8	289.283	900.422	1078.21	345.251	1060.51	970.824	297.146	1004.8	926.765	330.35	411.943	1412.53	237.987	398.89	1389.12	368.011	326.608	1379.85	325.122	235.936	1157.06	342.763	295.306	1144.39	293.359	200.808	1108.36	349.942	76.1797	987.324	295.036	128.17	945.909	332.508	419.458	966.975	197.995	693.162	963.281	201.931	517.882	988.263	369.72	610.594	981.968	373.033	759.777	770.437	241.423	761.739	506.867	279.471	660.519	490.979	289.468	805.407	394.564	333.898	784.038	93.1688	349.873	696.803	102.522	311.135	734.395	44.6344	411.437	825.091	27.249	236.47	757.744	38.6017	154.875	356.152	678.864	263.611	370.119	515.3	276.431	470.44	492.594	275.26	341.913	231.156	350.172	352.388	102.826	349.1	436.663	113.435	312.294	407.415	41.046	409.01	306.163	30.2484	241.252	365.052	40.1482	154.756
39	0.38	585.858	1419.16	209.376	565.387	1468.12	349.553	731.122	1422.66	293.397	409.888	1450.46	298.842	732.187	1379.89	234.721	714.606	1365.85	371.831	813.879	1279.42	328.297	871.886	1133.8	336.053	822.737	1107.82	289.132	900.504	1078.25	345.09	1060.59	970.872	296.966	1004.9	926.813	330.192	411.985	1412.53	237.844	398.938	1389.13	367.875	326.659	1379.84	324.985	235.998	1157.07	342.672	295.368	1144.39	293.27	200.868	1108.37	349.861	76.2474	987.31	294.972	128.234	945.905	332.463	419.515	966.95	197.919	693.217	963.264	201.859	517.935	988.298	369.637	610.648	982.008	372.955	759.827	770.433	241.398	761.777	506.866	279.47	660.558	490.99	289.48	805.441	394.561	333.901	784.042	93.168	349.875	696.807	102.527	311.135	734.397	44.6345	411.439	825.094	27.2487	236.471	757.746	38.6002	154.875	356.19	678.865	263.6	370.156	515.31	276.44	470.475	492.596	275.264	341.923	231.165	350.171	352.393	102.834	349.098	436.667	113.437	312.291	407.418	41.0485	409.009	306.158	30.2477	241.249	365.047	40.144	154.753
